<svg width="28" height="28" viewBox="0 0 28 28" fill="none" xmlns="http://www.w3.org/2000/svg">
<g id="add_a_photo" clip-path="url(#clip0_2541_39589)">
<path id="Vector" d="M3.5 9.33329C3.5 9.97496 4.025 10.5 4.66667 10.5C5.30833 10.5 5.83333 9.97496 5.83333 9.33329V6.99996H8.16667C8.80833 6.99996 9.33333 6.47496 9.33333 5.83329C9.33333 5.19163 8.80833 4.66663 8.16667 4.66663H5.83333V2.33329C5.83333 1.69163 5.30833 1.16663 4.66667 1.16663C4.025 1.16663 3.5 1.69163 3.5 2.33329V4.66663H1.16667C0.525 4.66663 0 5.19163 0 5.83329C0 6.47496 0.525 6.99996 1.16667 6.99996H3.5V9.33329Z" fill="#1C1C1C"/>
<path id="Vector_2" d="M15.168 19.8334C17.101 19.8334 18.668 18.2664 18.668 16.3334C18.668 14.4004 17.101 12.8334 15.168 12.8334C13.235 12.8334 11.668 14.4004 11.668 16.3334C11.668 18.2664 13.235 19.8334 15.168 19.8334Z" fill="#1C1C1C"/>
<path id="Vector_3" d="M24.5 6.99996H20.8017L19.355 5.42496C18.9233 4.94663 18.2933 4.66663 17.64 4.66663H10.1733C10.3717 5.01663 10.5 5.40163 10.5 5.83329C10.5 7.11663 9.45 8.16663 8.16667 8.16663H7V9.33329C7 10.6166 5.95 11.6666 4.66667 11.6666C4.235 11.6666 3.85 11.5383 3.5 11.34V23.3333C3.5 24.6166 4.55 25.6666 5.83333 25.6666H24.5C25.7833 25.6666 26.8333 24.6166 26.8333 23.3333V9.33329C26.8333 8.04996 25.7833 6.99996 24.5 6.99996ZM15.1667 22.1666C11.9467 22.1666 9.33333 19.5533 9.33333 16.3333C9.33333 13.1133 11.9467 10.5 15.1667 10.5C18.3867 10.5 21 13.1133 21 16.3333C21 19.5533 18.3867 22.1666 15.1667 22.1666Z" fill="#1C1C1C"/>
</g>
<defs>
<clipPath id="clip0_2541_39589">
<rect width="28" height="28" fill="white"/>
</clipPath>
</defs>
</svg>
