<svg width="25" height="24" viewBox="0 0 25 24" fill="none" xmlns="http://www.w3.org/2000/svg">
<g id="lets-icons:back-light">
<path id="Vector" d="M4.49997 10L4.14597 10.354L3.79297 10L4.14597 9.646L4.49997 10ZM21 18C21 18.1326 20.9473 18.2598 20.8535 18.3535C20.7598 18.4473 20.6326 18.5 20.5 18.5C20.3674 18.5 20.2402 18.4473 20.1464 18.3535C20.0526 18.2598 20 18.1326 20 18H21ZM9.14597 15.354L4.14597 10.354L4.85397 9.646L9.85397 14.646L9.14597 15.354ZM4.14597 9.646L9.14597 4.646L9.85397 5.354L4.85397 10.354L4.14597 9.646ZM4.49997 9.5H14.5V10.5H4.49997V9.5ZM21 16V18H20V16H21ZM14.5 9.5C16.2239 9.5 17.8772 10.1848 19.0962 11.4038C20.3151 12.6228 21 14.2761 21 16H20C20 14.5413 19.4205 13.1424 18.3891 12.1109C17.3576 11.0795 15.9587 10.5 14.5 10.5V9.5Z" fill="#3A3A3A"/>
</g>
</svg>
