<svg width="40" height="40" viewBox="0 0 40 40" fill="none" xmlns="http://www.w3.org/2000/svg">
<rect width="40" height="40" rx="20" fill="black"/>
<path d="M24.523 14.8794C24.523 17.3536 22.4979 19.3594 19.9999 19.3594C17.5019 19.3594 15.4768 17.3536 15.4768 14.8794C15.4768 12.4052 17.5019 10.3994 19.9999 10.3994C22.4979 10.3994 24.523 12.4052 24.523 14.8794Z" fill="#F8FAFB"/>
<path d="M11.6 27.4658C11.6 23.6956 14.5352 20.6392 18.1561 20.6392H21.8439C25.4647 20.6392 28.4 23.6956 28.4 27.4658V27.4658C28.4 28.644 27.4827 29.5992 26.3512 29.5992H13.6488C12.5172 29.5992 11.6 28.644 11.6 27.4658V27.4658Z" fill="#F8FAFB"/>
</svg>
