<svg width="20" height="20" viewBox="0 0 20 20" fill="none" xmlns="http://www.w3.org/2000/svg">
<g id="add" clip-path="url(#clip0_10_5569)">
<path id="Vector" d="M15.0001 10.8332H10.8334V14.9998C10.8334 15.4582 10.4584 15.8332 10.0001 15.8332C9.54175 15.8332 9.16675 15.4582 9.16675 14.9998V10.8332H5.00008C4.54175 10.8332 4.16675 10.4582 4.16675 9.99984C4.16675 9.5415 4.54175 9.1665 5.00008 9.1665H9.16675V4.99984C9.16675 4.5415 9.54175 4.1665 10.0001 4.1665C10.4584 4.1665 10.8334 4.5415 10.8334 4.99984V9.1665H15.0001C15.4584 9.1665 15.8334 9.5415 15.8334 9.99984C15.8334 10.4582 15.4584 10.8332 15.0001 10.8332Z" fill="#1C1C1C"/>
</g>
<defs>
<clipPath id="clip0_10_5569">
<rect width="20" height="20" fill="white"/>
</clipPath>
</defs>
</svg>
