<svg width="20" height="20" viewBox="0 0 20 20" fill="none" xmlns="http://www.w3.org/2000/svg">
<g id="upload" clip-path="url(#clip0_1516_4881)">
<path id="Vector" d="M8.33333 13.3331H11.6667C12.125 13.3331 12.5 12.9581 12.5 12.4998V8.33311H13.825C14.5667 8.33311 14.9417 7.43311 14.4167 6.90811L10.5917 3.08311C10.2667 2.75811 9.74167 2.75811 9.41667 3.08311L5.59167 6.90811C5.06667 7.43311 5.43333 8.33311 6.175 8.33311H7.5V12.4998C7.5 12.9581 7.875 13.3331 8.33333 13.3331ZM5 14.9998H15C15.4583 14.9998 15.8333 15.3748 15.8333 15.8331C15.8333 16.2914 15.4583 16.6664 15 16.6664H5C4.54167 16.6664 4.16667 16.2914 4.16667 15.8331C4.16667 15.3748 4.54167 14.9998 5 14.9998Z" fill="#1C1C1C"/>
</g>
<defs>
<clipPath id="clip0_1516_4881">
<rect width="20" height="20" fill="white"/>
</clipPath>
</defs>
</svg>
