<svg width="18" height="18" viewBox="0 0 18 18" fill="none" xmlns="http://www.w3.org/2000/svg">
<g id="delete" clip-path="url(#clip0_1049_10279)">
<path id="Vector" d="M4.63645 14.0905C4.63645 14.8905 5.291 15.545 6.091 15.545H11.9092C12.7092 15.545 13.3637 14.8905 13.3637 14.0905V6.81774C13.3637 6.01774 12.7092 5.36319 11.9092 5.36319H6.091C5.291 5.36319 4.63645 6.01774 4.63645 6.81774V14.0905ZM13.3637 3.18137H11.5455L11.0292 2.66501C10.8983 2.5341 10.7092 2.4541 10.5201 2.4541H7.48009C7.291 2.4541 7.10191 2.5341 6.971 2.66501L6.45463 3.18137H4.63645C4.23645 3.18137 3.90918 3.50865 3.90918 3.90865C3.90918 4.30865 4.23645 4.63592 4.63645 4.63592H13.3637C13.7637 4.63592 14.091 4.30865 14.091 3.90865C14.091 3.50865 13.7637 3.18137 13.3637 3.18137Z" fill="#2E4EEB"/>
</g>
<defs>
<clipPath id="clip0_1049_10279">
<rect width="17.4545" height="17.4545" fill="white" transform="translate(0.272461 0.272461)"/>
</clipPath>
</defs>
</svg>
