<svg width="24" height="24" viewBox="0 0 24 24" fill="none" xmlns="http://www.w3.org/2000/svg">
<g id="mingcute:check-fill" clip-path="url(#clip0_106_1755)">
<g id="Group">
<path id="Vector" fill-rule="evenodd" clip-rule="evenodd" d="M18.6924 7.30806C18.8894 7.50515 19 7.77242 19 8.0511C19 8.32978 18.8894 8.59706 18.6924 8.79414L10.818 16.6716C10.714 16.7757 10.5904 16.8583 10.4544 16.9146C10.3185 16.971 10.1727 17 10.0255 17C9.87836 17 9.73262 16.971 9.59664 16.9146C9.46066 16.8583 9.33712 16.7757 9.23306 16.6716L5.32073 12.7584C5.22039 12.6615 5.14035 12.5455 5.08529 12.4173C5.03023 12.2891 5.00125 12.1512 5.00004 12.0116C4.99883 11.8721 5.02541 11.7337 5.07823 11.6045C5.13106 11.4753 5.20906 11.358 5.30771 11.2593C5.40635 11.1606 5.52364 11.0826 5.65276 11.0298C5.78187 10.9769 5.92021 10.9503 6.0597 10.9515C6.1992 10.9527 6.33705 10.9817 6.46522 11.0368C6.5934 11.0919 6.70932 11.172 6.80624 11.2723L10.0252 14.4925L17.2062 7.30806C17.3038 7.2104 17.4196 7.13292 17.5471 7.08007C17.6746 7.02721 17.8113 7 17.9493 7C18.0873 7 18.224 7.02721 18.3515 7.08007C18.479 7.13292 18.5948 7.2104 18.6924 7.30806Z" fill="#0066DA"/>
</g>
</g>
<defs>
<clipPath id="clip0_106_1755">
<rect width="24" height="24" fill="white"/>
</clipPath>
</defs>
</svg>
