<svg width="32" height="32" viewBox="0 0 32 32" fill="none" xmlns="http://www.w3.org/2000/svg">
<g id="close" clip-path="url(#clip0_616_3456)">
<path id="Vector" d="M24.4004 7.61378C23.8804 7.09378 23.0404 7.09378 22.5204 7.61378L16.0005 14.1205L9.48045 7.60045C8.96045 7.08045 8.12045 7.08045 7.60045 7.60045C7.08045 8.12045 7.08045 8.96045 7.60045 9.48045L14.1205 16.0005L7.60045 22.5204C7.08045 23.0404 7.08045 23.8804 7.60045 24.4004C8.12045 24.9204 8.96045 24.9204 9.48045 24.4004L16.0005 17.8804L22.5204 24.4004C23.0404 24.9204 23.8804 24.9204 24.4004 24.4004C24.9204 23.8804 24.9204 23.0404 24.4004 22.5204L17.8804 16.0005L24.4004 9.48045C24.9071 8.97378 24.9071 8.12045 24.4004 7.61378Z" fill="#494E4E"/>
</g>
<defs>
<clipPath id="clip0_616_3456">
<rect width="32" height="32" fill="white"/>
</clipPath>
</defs>
</svg>
