<svg width="40" height="40" viewBox="0 0 40 40" fill="none" xmlns="http://www.w3.org/2000/svg">
<circle cx="20" cy="20" r="18" fill="#EBEBEB"/>
<path d="M24.188 15.2592C24.188 17.5502 22.3129 19.4074 19.9999 19.4074C17.6869 19.4074 15.8119 17.5502 15.8119 15.2592C15.8119 12.9683 17.6869 11.1111 19.9999 11.1111C22.3129 11.1111 24.188 12.9683 24.188 15.2592Z" fill="#C4C4C4"/>
<path d="M12.2223 26.9138C12.2223 23.4228 14.9401 20.5928 18.2928 20.5928H21.7074C25.06 20.5928 27.7778 23.4228 27.7778 26.9138V26.9138C27.7778 28.0047 26.9285 28.8891 25.8808 28.8891H14.1193C13.0716 28.8891 12.2223 28.0047 12.2223 26.9138V26.9138Z" fill="#C4C4C4"/>
</svg>
