<svg width="37" height="37" viewBox="0 0 37 37" fill="none" xmlns="http://www.w3.org/2000/svg">
<circle cx="18.5" cy="18.5" r="18.5" fill="#EBEBEB"/>
<path d="M22.1461 13.3066C22.1461 15.5747 20.2898 17.4133 17.9999 17.4133C15.7101 17.4133 13.8538 15.5747 13.8538 13.3066C13.8538 11.0386 15.7101 9.19995 17.9999 9.19995C20.2898 9.19995 22.1461 11.0386 22.1461 13.3066Z" fill="#C4C4C4"/>
<path d="M10.3 24.8444C10.3 21.3884 12.9907 18.5867 16.3098 18.5867H19.6903C23.0094 18.5867 25.7 21.3884 25.7 24.8444V24.8444C25.7 25.9245 24.8592 26.8 23.822 26.8H12.1781C11.1409 26.8 10.3 25.9245 10.3 24.8444V24.8444Z" fill="#C4C4C4"/>
</svg>
