<svg width="44" height="44" viewBox="0 0 44 44" fill="none" xmlns="http://www.w3.org/2000/svg">
<rect x="0.5" y="0.5" width="43" height="43" rx="7.5" fill="white"/>
<rect x="0.5" y="0.5" width="43" height="43" rx="7.5" stroke="#2E4EEB"/>
<g clip-path="url(#clip0_675_3565)">
<path d="M16 29C16 30.1 16.9 31 18 31H26C27.1 31 28 30.1 28 29V19C28 17.9 27.1 17 26 17H18C16.9 17 16 17.9 16 19V29ZM28 14H25.5L24.79 13.29C24.61 13.11 24.35 13 24.09 13H19.91C19.65 13 19.39 13.11 19.21 13.29L18.5 14H16C15.45 14 15 14.45 15 15C15 15.55 15.45 16 16 16H28C28.55 16 29 15.55 29 15C29 14.45 28.55 14 28 14Z" fill="#2E4EEB"/>
</g>
<defs>
<clipPath id="clip0_675_3565">
<rect width="24" height="24" fill="white" transform="translate(10 10)"/>
</clipPath>
</defs>
</svg>
