<svg width="13" height="12" viewBox="0 0 13 12" fill="none" xmlns="http://www.w3.org/2000/svg">
<g id="Group">
<g id="Group_2">
<path id="Vector" d="M12.7334 5.51699L9.36672 0.808659C9.08339 0.408659 8.62505 0.166992 8.13339 0.166992C6.89172 0.166992 6.17505 1.56699 6.89172 2.57533L9.33339 6.00033L6.89172 9.42533C6.16672 10.4337 6.89172 11.8337 8.13339 11.8337C8.62505 11.8337 9.09172 11.592 9.37505 11.192L12.7417 6.48366C12.9417 6.19199 12.9417 5.80866 12.7334 5.51699Z" fill="#1C1C1C"/>
<path id="Vector_2" d="M6.90001 5.51699L3.54168 0.808659C3.25001 0.408659 2.79168 0.166992 2.30001 0.166992C1.05834 0.166992 0.333344 1.56699 1.05834 2.57533L3.50001 6.00033L1.05834 9.42533C0.333344 10.4337 1.05834 11.8337 2.30001 11.8337C2.79168 11.8337 3.25834 11.592 3.54168 11.192L6.90834 6.48366C7.10835 6.19199 7.10834 5.80866 6.90001 5.51699Z" fill="#1C1C1C"/>
</g>
</g>
</svg>
