<svg width="24" height="24" viewBox="0 0 24 24" fill="none" xmlns="http://www.w3.org/2000/svg">
<g id="Property 1=standard, Property 2=stroke">
<rect id="Rectangle 687" x="4.70117" y="16.499" width="14.5829" height="2.1709" fill="#432005"/>
<rect id="Rectangle 685" x="2.625" y="10.749" width="18.7335" height="3.56" fill="#432005"/>
<rect id="Rectangle 686" x="2.97656" y="6.18848" width="18.0321" height="2.2" fill="#432005"/>
<path id="Union" d="M2.7343 7.77843L3.4257 8.06906L2.7343 7.77843ZM6.74865 3.84075V3.09075H6.59197L6.44839 3.15348L6.74865 3.84075ZM2.29917 9.80037L1.54935 9.78362V9.78362L2.29917 9.80037ZM2.32244 10.4523L3.06922 10.3829L3.06922 10.3829L2.32244 10.4523ZM3.09415 13.6696L2.38777 13.9216H2.38777L3.09415 13.6696ZM3.92596 15.6889L3.24539 16.004L3.92596 15.6889ZM4.47543 16.9094L3.78983 17.2134L3.78983 17.2134L4.47543 16.9094ZM19.6144 16.8012L18.9298 16.4949V16.4949L19.6144 16.8012ZM20.118 15.6889L20.7986 16.004L20.118 15.6889ZM20.9498 13.6696L21.6562 13.9216L20.9498 13.6696ZM21.7215 10.4523L22.4683 10.5217V10.5217L21.7215 10.4523ZM21.7448 9.80037L20.995 9.81712V9.81713L21.7448 9.80037ZM21.3097 7.77843L20.6183 8.06906L21.3097 7.77843ZM17.2953 3.84075L17.5956 3.15348L17.452 3.09075H17.2953V3.84075ZM3.4257 8.06906C4.19664 6.23504 5.98221 4.99405 7.04891 4.52802L6.44839 3.15348C5.17587 3.70942 3.01546 5.17415 2.0429 7.48779L3.4257 8.06906ZM3.04898 9.81712C3.06313 9.18406 3.20182 8.60165 3.4257 8.06906L2.0429 7.48779C1.7521 8.17959 1.56804 8.94721 1.54935 9.78362L3.04898 9.81712ZM3.06922 10.3829C3.05122 10.1892 3.04488 10.0007 3.04898 9.81712L1.54935 9.78362C1.54397 10.0248 1.55235 10.2709 1.57566 10.5217L3.06922 10.3829ZM3.80053 13.4175C3.42317 12.3599 3.15648 11.3218 3.06922 10.3829L1.57566 10.5217C1.67834 11.6266 1.98502 12.7929 2.38777 13.9216L3.80053 13.4175ZM4.60653 15.3737C4.31107 14.7357 4.03566 14.0765 3.80053 13.4175L2.38777 13.9216C2.64068 14.6305 2.93423 15.3321 3.24539 16.004L4.60653 15.3737ZM5.16104 16.6053C4.98725 16.2134 4.80358 15.7992 4.60653 15.3737L3.24539 16.004C3.43652 16.4168 3.61539 16.8201 3.78983 17.2134L5.16104 16.6053ZM7.99952 20.2471C7.46466 20.2471 7.04073 19.998 6.58677 19.3813C6.10785 18.7307 5.68885 17.7955 5.16104 16.6053L3.78983 17.2134C4.29408 18.3505 4.78148 19.4591 5.37876 20.2705C6.001 21.1159 6.82308 21.7471 7.99952 21.7471V20.2471ZM12.022 20.2471H7.99952V21.7471H12.022V20.2471ZM12.022 21.7471H15.9995V20.2471H12.022V21.7471ZM15.9995 21.7471C17.1924 21.7471 18.0283 21.0986 18.6631 20.2366C19.2748 19.406 19.7781 18.2718 20.299 17.1075L18.9298 16.4949C18.3856 17.7113 17.9503 18.675 17.4553 19.3471C16.9833 19.988 16.5443 20.2471 15.9995 20.2471V21.7471ZM20.299 17.1075C20.46 16.7476 20.6246 16.3797 20.7986 16.004L19.4374 15.3737C19.2587 15.7596 19.0903 16.1362 18.9298 16.4949L20.299 17.1075ZM20.7986 16.004C21.1097 15.3321 21.4033 14.6305 21.6562 13.9216L20.2434 13.4175C20.0083 14.0765 19.7329 14.7357 19.4374 15.3737L20.7986 16.004ZM21.6562 13.9216C22.0589 12.7929 22.3656 11.6266 22.4683 10.5217L20.9747 10.3829C20.8875 11.3218 20.6208 12.3599 20.2434 13.4175L21.6562 13.9216ZM22.4683 10.5217C22.4916 10.2709 22.5 10.0248 22.4946 9.78361L20.995 9.81713C20.9991 10.0007 20.9927 10.1892 20.9747 10.3829L22.4683 10.5217ZM22.4946 9.78362C22.4759 8.94721 22.2919 8.17959 22.0011 7.48779L20.6183 8.06906C20.8421 8.60165 20.9808 9.18406 20.995 9.81712L22.4946 9.78362ZM22.0011 7.48779C21.0285 5.17415 18.8681 3.70942 17.5956 3.15348L16.995 4.52802C18.0617 4.99405 19.8473 6.23504 20.6183 8.06906L22.0011 7.48779ZM17.2953 3.09075H12.022V4.59075H17.2953V3.09075ZM6.74865 4.59075H12.022V3.09075H6.74865V4.59075Z" fill="#432005"/>
<rect id="Rectangle 691" x="3.74316" y="2.71387" width="16.5144" height="2" rx="1" fill="#432005"/>
</g>
</svg>
