<svg width="24" height="24" viewBox="0 0 24 24" fill="none" xmlns="http://www.w3.org/2000/svg">
<g id="Property 1=overgradient, Property 2=stroke">
<path id="Union" fill-rule="evenodd" clip-rule="evenodd" d="M3.74316 3.71387C3.74316 3.16158 4.19088 2.71387 4.74316 2.71387H19.2575C19.8098 2.71387 20.2575 3.16158 20.2575 3.71387C20.2575 4.06934 20.0721 4.3815 19.7926 4.55883C20.6558 5.29637 21.4915 6.27558 22.0011 7.48786C22.2919 8.17966 22.476 8.94728 22.4947 9.78368C22.5001 10.0249 22.4917 10.271 22.4684 10.5218C22.3657 11.6266 22.059 12.7929 21.6563 13.9217C21.4033 14.6305 21.1098 15.3321 20.7986 16.0041C20.6247 16.3798 20.4601 16.7476 20.299 17.1076L20.273 17.1658C19.7614 18.3096 19.2647 19.42 18.6632 20.2367C18.0284 21.0986 17.1925 21.7471 15.9996 21.7471H12.022H7.99959C6.82315 21.7471 6.00107 21.1159 5.37883 20.2706C4.7919 19.4733 4.31107 18.3889 3.81609 17.2725L3.7899 17.2135C3.61546 16.8201 3.43659 16.4168 3.24546 16.0041C2.9343 15.3321 2.64075 14.6305 2.38784 13.9217C1.98509 12.7929 1.67841 11.6266 1.57573 10.5218C1.55242 10.271 1.54404 10.0249 1.54942 9.78368C1.56811 8.94728 1.75217 8.17966 2.04297 7.48786C2.549 6.28407 3.37659 5.31008 4.23338 4.57435C3.93988 4.4001 3.74316 4.07995 3.74316 3.71387ZM17.3787 4.71387H6.66542C6.06981 5.0287 5.34631 5.52754 4.70366 6.18848H19.3404C18.6978 5.52754 17.9743 5.0287 17.3787 4.71387ZM20.74 8.38848H3.30409C3.15225 8.83228 3.06042 9.30837 3.04905 9.81719C3.04495 10.0007 3.05129 10.1893 3.06929 10.383C3.08049 10.5034 3.09463 10.6255 3.11159 10.749H20.9325C20.9495 10.6255 20.9636 10.5034 20.9748 10.383C20.9928 10.1893 20.9991 10.0007 20.995 9.81719C20.9837 9.30837 20.8919 8.83228 20.74 8.38848ZM4.6066 15.3738C4.44464 15.024 4.28871 14.6679 4.14213 14.309H19.902C19.7554 14.6679 19.5995 15.024 19.4375 15.3738C19.2591 15.7589 19.091 16.1348 18.9308 16.4929L18.9298 16.495L18.928 16.499H5.11394C4.95415 16.1388 4.78592 15.761 4.6066 15.3738ZM17.8863 18.6699H6.13972C6.28631 18.9356 6.4335 19.1731 6.58684 19.3814C7.0408 19.9981 7.46473 20.2471 7.99959 20.2471H12.022H15.9996C16.5444 20.2471 16.9834 19.9881 17.4554 19.3472C17.6028 19.147 17.745 18.9209 17.8863 18.6699Z" fill="#FEFCE8"/>
</g>
</svg>
