<svg width="28" height="26" viewBox="0 0 28 26" fill="none" xmlns="http://www.w3.org/2000/svg">
<path id="Star 18" d="M13.0489 0.927047C13.3483 0.00573683 14.6517 0.00573993 14.9511 0.927051L17.3677 8.36475C17.5016 8.77677 17.8855 9.05573 18.3188 9.05573H26.1392C27.1079 9.05573 27.5107 10.2953 26.727 10.8647L20.4001 15.4615C20.0496 15.7161 19.903 16.1675 20.0369 16.5795L22.4535 24.0172C22.7529 24.9385 21.6984 25.7047 20.9147 25.1353L14.5878 20.5385C14.2373 20.2839 13.7627 20.2839 13.4122 20.5385L7.08533 25.1353C6.30162 25.7047 5.24714 24.9385 5.54649 24.0172L7.96315 16.5795C8.09702 16.1675 7.95036 15.7161 7.59987 15.4615L1.27299 10.8647C0.489277 10.2953 0.892056 9.05573 1.86078 9.05573H9.68123C10.1145 9.05573 10.4984 8.77677 10.6323 8.36475L13.0489 0.927047Z" fill="#D9D9D9"/>
</svg>
