<svg width="54" height="72" viewBox="0 0 54 72" fill="none" xmlns="http://www.w3.org/2000/svg">
<path d="M21.8429 32.1569C21.6337 31.9477 21.3854 31.7818 21.112 31.6686C20.8387 31.5553 20.5458 31.4971 20.2499 31.4971C19.9541 31.4971 19.6611 31.5553 19.3878 31.6686C19.1145 31.7818 18.8661 31.9477 18.6569 32.1569C18.4477 32.3661 18.2818 32.6145 18.1686 32.8878C18.0553 33.1611 17.9971 33.4541 17.9971 33.7499C17.9971 34.0458 18.0553 34.3387 18.1686 34.612C18.2818 34.8854 18.4477 35.1337 18.6569 35.3429L23.8184 40.4999L18.6569 45.6569C18.2344 46.0794 17.9971 46.6524 17.9971 47.2499C17.9971 47.8474 18.2344 48.4204 18.6569 48.8429C19.0794 49.2654 19.6524 49.5028 20.2499 49.5028C20.8474 49.5028 21.4204 49.2654 21.8429 48.8429L26.9999 43.6814L32.1569 48.8429C32.5794 49.2654 33.1524 49.5028 33.7499 49.5028C34.3474 49.5028 34.9204 49.2654 35.3429 48.8429C35.7654 48.4204 36.0028 47.8474 36.0028 47.2499C36.0028 46.6524 35.7654 46.0794 35.3429 45.6569L30.1814 40.4999L35.3429 35.3429C35.7654 34.9204 36.0028 34.3474 36.0028 33.7499C36.0028 33.1524 35.7654 32.5794 35.3429 32.1569C34.9204 31.7344 34.3474 31.4971 33.7499 31.4971C33.1524 31.4971 32.5794 31.7344 32.1569 32.1569L26.9999 37.3184L21.8429 32.1569Z" fill="#C4C4C4"/>
<path d="M54 63V21.0784C54 20.548 53.7893 20.0393 53.4142 19.6642L34.3358 0.585786C33.9607 0.210713 33.452 0 32.9216 0H9C6.61305 0 4.32387 0.948212 2.63604 2.63604C0.948211 4.32387 0 6.61305 0 9V63C0 65.3869 0.948211 67.6761 2.63604 69.364C4.32387 71.0518 6.61305 72 9 72H45C47.3869 72 49.6761 71.0518 51.364 69.364C53.0518 67.6761 54 65.3869 54 63ZM33.75 13.5C33.75 15.2902 34.4612 17.0071 35.727 18.273C36.9929 19.5388 38.7098 20.25 40.5 20.25H49.5V63C49.5 64.1935 49.0259 65.3381 48.182 66.182C47.3381 67.0259 46.1935 67.5 45 67.5H9C7.80653 67.5 6.66193 67.0259 5.81802 66.182C4.97411 65.3381 4.5 64.1935 4.5 63V9C4.5 7.80653 4.97411 6.66193 5.81802 5.81802C6.66193 4.97411 7.80653 4.5 9 4.5H33.75V13.5Z" fill="#C4C4C4"/>
</svg>
