<svg width="20" height="19" viewBox="0 0 20 19" fill="none" xmlns="http://www.w3.org/2000/svg">
<path d="M10.847 17.0724L10.8445 17.0746C10.371 17.5045 9.6402 17.5043 9.16681 17.0683L9.16319 17.065L9.0532 16.965L9.05187 16.9638C6.41117 14.5746 4.29226 12.653 2.83992 10.8528C1.3985 9.06603 0.691955 7.49177 0.748245 5.80571C0.800316 4.33639 1.5551 2.93076 2.76078 2.10987L2.76119 2.10959C5.03823 0.557063 7.87855 1.263 9.42847 3.0771L9.99869 3.74452L10.5689 3.0771C12.1204 1.26118 14.9599 0.548937 17.2346 2.1085L17.2366 2.10987C18.4425 2.93089 19.1973 4.33682 19.2492 5.80638L19.2492 5.80697C19.31 7.49193 18.6043 9.06556 17.1611 10.8554C15.7105 12.6545 13.5954 14.5761 10.9626 16.9683L10.947 16.9824L10.9443 16.9848L10.847 17.0724Z" stroke="white" stroke-width="1.5"/>
</svg>
