<svg width="20" height="18" viewBox="0 0 20 18" fill="none" xmlns="http://www.w3.org/2000/svg">
<path d="M17.66 0.990166C15.02 -0.809834 11.76 0.0301659 9.99997 2.09017C8.23997 0.0301659 4.97997 -0.819834 2.33997 0.990166C0.939969 1.95017 0.0599691 3.57017 -3.09171e-05 5.28017C-0.140031 9.16017 3.29997 12.2702 8.54997 17.0402L8.64997 17.1302C9.40997 17.8202 10.58 17.8202 11.34 17.1202L11.45 17.0202C16.7 12.2602 20.13 9.15017 20 5.27017C19.94 3.57017 19.06 1.95017 17.66 0.990166ZM10.1 15.5502L9.99997 15.6502L9.89997 15.5502C5.13997 11.2402 1.99997 8.39017 1.99997 5.50017C1.99997 3.50017 3.49997 2.00017 5.49997 2.00017C7.03997 2.00017 8.53997 2.99017 9.06997 4.36017H10.94C11.46 2.99017 12.96 2.00017 14.5 2.00017C16.5 2.00017 18 3.50017 18 5.50017C18 8.39017 14.86 11.2402 10.1 15.5502Z" fill="#1C1C1C"/>
</svg>
