<svg width="16" height="10" viewBox="0 0 16 10" fill="none" xmlns="http://www.w3.org/2000/svg">
<path d="M7.99996 1.33333C10.5266 1.33333 12.78 2.75333 13.88 5C12.78 7.24667 10.5333 8.66667 7.99996 8.66667C5.46663 8.66667 3.21996 7.24667 2.11996 5C3.21996 2.75333 5.47329 1.33333 7.99996 1.33333ZM7.99996 0C4.66663 0 1.81996 2.07333 0.666626 5C1.81996 7.92667 4.66663 10 7.99996 10C11.3333 10 14.18 7.92667 15.3333 5C14.18 2.07333 11.3333 0 7.99996 0ZM7.99996 3.33333C8.91996 3.33333 9.66663 4.08 9.66663 5C9.66663 5.92 8.91996 6.66667 7.99996 6.66667C7.07996 6.66667 6.33329 5.92 6.33329 5C6.33329 4.08 7.07996 3.33333 7.99996 3.33333ZM7.99996 2C6.34663 2 4.99996 3.34667 4.99996 5C4.99996 6.65333 6.34663 8 7.99996 8C9.65329 8 11 6.65333 11 5C11 3.34667 9.65329 2 7.99996 2Z" fill="#656565"/>
</svg>
