<svg width="79" height="76" viewBox="0 0 79 76" fill="none" xmlns="http://www.w3.org/2000/svg">
<g id="feedbee">
<g id="Layer 1">
<path id="Vector" d="M47.4195 23.2411C44.9973 -10.2654 8.3042 -0.607555 25.1874 17.611C29.8443 23.3421 47.1455 23.6597 47.4195 23.2411Z" fill="#EBEBEB"/>
<path id="Vector_2" d="M51.1388 22.937C51.1388 22.937 53.0852 6.855 63.8552 9.65563C67.5606 10.6084 73.1835 22.937 51.1388 22.937Z" fill="#EBEBEB"/>
<path id="Vector_3" d="M78.5324 55.3421C78.6333 89.9457 2.19056 76.5056 14.3015 48.4993C17.8338 34.8571 76.9465 19.4825 78.5324 55.3421Z" fill="#FDCB07"/>
<path id="Vector_4" d="M14.3022 48.501L1.91736 54.6797L15.5133 62.4319L13.3218 55.7191L14.3022 48.501Z" fill="#FDCB07"/>
<path id="Vector_5" d="M76.6152 49.3666C76.7161 84.0135 0.273328 70.5012 12.3842 42.5238C15.8589 28.8671 74.9715 13.507 76.6152 49.3666Z" stroke="#300707" stroke-width="2.53333" stroke-miterlimit="10"/>
<path id="Vector_6" d="M37.097 68.5824V28.5508" stroke="#300707" stroke-width="2.53333" stroke-miterlimit="10"/>
<path id="Vector_7" d="M28.0424 30.2969V66.2431" stroke="#300707" stroke-width="2.53333" stroke-miterlimit="10"/>
<path id="Vector_8" d="M19.3043 35.0312V62.6044" stroke="#300707" stroke-width="2.53333" stroke-miterlimit="10"/>
<path id="Vector_9" d="M12.3848 42.5244L0 48.7031L13.5959 56.4698L11.4044 49.7425L12.3848 42.5244Z" fill="#300707"/>
<path id="Vector_10" d="M63.3359 45.037C63.3359 49.5271 58.9097 49.5271 59.0106 45.037C59.1115 40.5469 63.4369 40.5613 63.3359 45.037Z" fill="#300707"/>
<path id="Vector_11" d="M70.1723 45.0372C70.1723 48.5889 66.712 48.5889 66.7553 45.0372C66.7985 41.4856 70.2011 41.5 70.1723 45.0372Z" fill="#300707"/>
</g>
</g>
</svg>
