<svg width="248" height="240" viewBox="0 0 248 240" fill="none" xmlns="http://www.w3.org/2000/svg">
<g id="feedbee" clip-path="url(#clip0_1204_7853)">
<g id="Layer 1">
<path id="Vector" d="M149.745 72.2507C142.096 -33.5593 26.2226 -3.06086 79.5378 54.4713C94.2439 72.5698 148.879 73.5727 149.745 72.2507Z" fill="#EBEBEB"/>
<path id="Vector_2" d="M161.492 71.2912C161.492 71.2912 167.639 20.5061 201.649 29.3502C213.35 32.359 231.107 71.2912 161.492 71.2912Z" fill="#EBEBEB"/>
<path id="Vector_3" d="M247.997 174.78C248.316 284.055 6.9177 241.613 45.1626 153.172C56.3174 110.091 242.989 61.5396 247.997 174.78Z" fill="#FDCB07"/>
<path id="Vector_4" d="M45.1647 153.176L6.05469 172.687L48.9892 197.168L42.0686 175.97L45.1647 153.176Z" fill="#FDCB07"/>
<path id="Vector_5" d="M241.942 155.909C242.261 265.321 0.863014 222.65 39.1079 134.3C50.0806 91.1742 236.752 42.6684 241.942 155.909Z" stroke="#300707" stroke-width="8" stroke-miterlimit="10"/>
<path id="Vector_6" d="M117.148 216.591V90.1748" stroke="#300707" stroke-width="8" stroke-miterlimit="10"/>
<path id="Vector_7" d="M88.5547 95.6904V209.205" stroke="#300707" stroke-width="8" stroke-miterlimit="10"/>
<path id="Vector_8" d="M60.9609 110.64V197.713" stroke="#300707" stroke-width="8" stroke-miterlimit="10"/>
<path id="Vector_9" d="M39.11 134.304L0 153.815L42.9345 178.342L36.014 157.098L39.11 134.304Z" fill="#300707"/>
<path id="Vector_10" d="M200.008 142.238C200.008 156.417 186.03 156.417 186.349 142.238C186.668 128.058 200.327 128.104 200.008 142.238Z" fill="#300707"/>
<path id="Vector_11" d="M221.596 142.238C221.596 153.453 210.669 153.453 210.806 142.238C210.943 131.022 221.688 131.067 221.596 142.238Z" fill="#300707"/>
</g>
</g>
<defs>
<clipPath id="clip0_1204_7853">
<rect width="248" height="240" fill="white"/>
</clipPath>
</defs>
</svg>
