<svg width="18" height="18" viewBox="0 0 18 18" fill="none" xmlns="http://www.w3.org/2000/svg">
<g id="ic_figma">
<path id="Vector" opacity="0.6" d="M8.75026 1.5H6.24976C5.58668 1.5 4.95077 1.76341 4.4819 2.23227C4.01304 2.70113 3.74963 3.33705 3.74963 4.00012C3.74963 4.6632 4.01304 5.29912 4.4819 5.76798C4.95077 6.23684 5.58668 6.50025 6.24976 6.50025H8.75026V1.5Z" fill="#1C1C1C"/>
<path id="Vector_2" opacity="0.4" d="M8.75025 6.5H6.24975C5.58678 6.5 4.95095 6.76337 4.48216 7.23216C4.01337 7.70095 3.75 8.33678 3.75 8.99975C3.75 9.66272 4.01337 10.2985 4.48216 10.7673C4.95095 11.2361 5.58678 11.4995 6.24975 11.4995H8.75025V6.5Z" fill="#1C1C1C"/>
<path id="Vector_3" d="M13.7498 9.00012C13.7498 9.6632 13.4864 10.2991 13.0175 10.768C12.5486 11.2368 11.9127 11.5002 11.2496 11.5002C10.5866 11.5002 9.95065 11.2368 9.48178 10.768C9.01292 10.2991 8.74951 9.6632 8.74951 9.00012C8.74951 8.33705 9.01292 7.70113 9.48178 7.23227C9.95065 6.76341 10.5866 6.5 11.2496 6.5C11.9127 6.5 12.5486 6.76341 13.0175 7.23227C13.4864 7.70113 13.7498 8.33705 13.7498 9.00012Z" fill="#1C1C1C"/>
<path id="Vector_4" opacity="0.2" d="M6.24973 11.5007H8.75023V14.0005C8.75009 14.4948 8.60337 14.978 8.32864 15.389C8.0539 15.8 7.66349 16.1203 7.20675 16.3094C6.75001 16.4985 6.24746 16.5479 5.76262 16.4514C5.27779 16.355 4.83244 16.1169 4.48289 15.7673C4.13334 15.4178 3.89528 14.9724 3.7988 14.4876C3.70232 14.0028 3.75177 13.5002 3.94087 13.0435C4.12998 12.5867 4.45026 12.1963 4.86123 11.9216C5.2722 11.6469 5.75539 11.5009 6.24973 11.5007Z" fill="#1C1C1C"/>
<path id="Vector_5" opacity="0.8" d="M8.74951 1.5H11.2493C11.9123 1.5 12.5483 1.76341 13.0171 2.23227C13.486 2.70113 13.7494 3.33705 13.7494 4.00012C13.7494 4.6632 13.486 5.29912 13.0171 5.76798C12.5483 6.23684 11.9123 6.50025 11.2493 6.50025H8.74951V1.5Z" fill="#1C1C1C"/>
</g>
</svg>
