<svg width="54" height="72" viewBox="0 0 54 72" fill="none" xmlns="http://www.w3.org/2000/svg">
<g id="Group">
<path id="Vector" d="M54 63V21.0784C54 20.548 53.7893 20.0393 53.4142 19.6642L34.3358 0.585786C33.9607 0.210713 33.452 0 32.9216 0H9C6.61305 0 4.32387 0.948212 2.63604 2.63604C0.948211 4.32387 0 6.61305 0 9V63C0 65.3869 0.948211 67.6761 2.63604 69.364C4.32387 71.0518 6.61305 72 9 72H45C47.3869 72 49.6761 71.0518 51.364 69.364C53.0518 67.6761 54 65.3869 54 63ZM33.75 13.5C33.75 15.2902 34.4612 17.0071 35.727 18.273C36.9929 19.5388 38.7098 20.25 40.5 20.25H49.5V63C49.5 64.1935 49.0259 65.3381 48.182 66.182C47.3381 67.0259 46.1935 67.5 45 67.5H9C7.80653 67.5 6.66193 67.0259 5.81802 66.182C4.97411 65.3381 4.5 64.1935 4.5 63V9C4.5 7.80653 4.97411 6.66193 5.81802 5.81802C6.66193 4.97411 7.80653 4.5 9 4.5H33.75V13.5Z" fill="#C4C4C4"/>
</g>
</svg>
