<svg width="24" height="24" viewBox="0 0 24 24" fill="none" xmlns="http://www.w3.org/2000/svg">
<g id="Property 1=overgradient, Property 2=fill">
<g id="Union">
<path fill-rule="evenodd" clip-rule="evenodd" d="M6.74865 3.84075C5.57904 4.35173 3.60605 5.7046 2.7343 7.77843C2.47696 8.39062 2.31558 9.06564 2.29917 9.80037C2.29442 10.0127 2.30179 10.2301 2.32244 10.4523C2.41741 11.4742 2.7041 12.5764 3.09415 13.6696C3.33817 14.3535 3.62265 15.0339 3.92596 15.6889C4.12005 16.108 4.30132 16.5167 4.47543 16.9094C5.5075 19.2366 6.28822 20.9971 7.99952 20.9971H12.022H15.9995C17.7372 20.9971 18.5493 19.1819 19.6144 16.8012C19.7751 16.4419 19.9417 16.0697 20.118 15.6889C20.4213 15.0339 20.7058 14.3535 20.9498 13.6696C21.3399 12.5764 21.6265 11.4742 21.7215 10.4523C21.7422 10.2301 21.7495 10.0127 21.7448 9.80037C21.7284 9.06564 21.567 8.39062 21.3097 7.77843C20.4379 5.7046 18.4649 4.35173 17.2953 3.84075H12.022H6.74865Z" fill="#EDB405"/>
<path d="M2.7343 7.77843L3.4257 8.06906L3.4257 8.06906L2.7343 7.77843ZM6.74865 3.84075V3.09075H6.59197L6.44839 3.15348L6.74865 3.84075ZM2.29917 9.80037L1.54935 9.78362L1.54935 9.78362L2.29917 9.80037ZM2.32244 10.4523L3.06922 10.3829L3.06922 10.3829L2.32244 10.4523ZM3.09415 13.6696L2.38777 13.9216L2.38777 13.9216L3.09415 13.6696ZM3.92596 15.6889L3.24539 16.004L3.24539 16.004L3.92596 15.6889ZM4.47543 16.9094L3.78983 17.2134L3.78983 17.2134L4.47543 16.9094ZM19.6144 16.8012L18.9298 16.4949L18.9298 16.4949L19.6144 16.8012ZM20.118 15.6889L20.7986 16.004L20.7986 16.004L20.118 15.6889ZM20.9498 13.6696L21.6562 13.9216L21.6562 13.9216L20.9498 13.6696ZM21.7215 10.4523L22.4683 10.5217L22.4683 10.5217L21.7215 10.4523ZM21.7448 9.80037L20.995 9.81712L20.995 9.81713L21.7448 9.80037ZM21.3097 7.77843L20.6183 8.06906L20.6183 8.06906L21.3097 7.77843ZM17.2953 3.84075L17.5956 3.15348L17.452 3.09075H17.2953V3.84075ZM3.4257 8.06906C4.19664 6.23504 5.98221 4.99405 7.04891 4.52802L6.44839 3.15348C5.17587 3.70942 3.01546 5.17415 2.0429 7.48779L3.4257 8.06906ZM3.04898 9.81712C3.06313 9.18406 3.20182 8.60165 3.4257 8.06906L2.0429 7.48779C1.7521 8.17959 1.56804 8.94721 1.54935 9.78362L3.04898 9.81712ZM3.06922 10.3829C3.05122 10.1892 3.04488 10.0007 3.04898 9.81712L1.54935 9.78362C1.54397 10.0248 1.55235 10.2709 1.57566 10.5217L3.06922 10.3829ZM3.80053 13.4175C3.42317 12.3599 3.15648 11.3218 3.06922 10.3829L1.57566 10.5217C1.67834 11.6266 1.98502 12.7929 2.38777 13.9216L3.80053 13.4175ZM4.60653 15.3737C4.31107 14.7357 4.03566 14.0765 3.80053 13.4175L2.38777 13.9216C2.64068 14.6305 2.93423 15.3321 3.24539 16.004L4.60653 15.3737ZM5.16104 16.6053C4.98725 16.2134 4.80358 15.7992 4.60653 15.3737L3.24539 16.004C3.43652 16.4168 3.61539 16.8201 3.78983 17.2134L5.16104 16.6053ZM7.99952 20.2471C7.46466 20.2471 7.04073 19.998 6.58677 19.3813C6.10785 18.7307 5.68885 17.7955 5.16104 16.6053L3.78983 17.2134C4.29408 18.3505 4.78148 19.4591 5.37876 20.2705C6.001 21.1159 6.82308 21.7471 7.99952 21.7471V20.2471ZM12.022 20.2471H7.99952V21.7471H12.022V20.2471ZM12.022 21.7471H15.9995V20.2471H12.022V21.7471ZM15.9995 21.7471C17.1924 21.7471 18.0283 21.0986 18.6631 20.2366C19.2748 19.406 19.7781 18.2718 20.299 17.1075L18.9298 16.4949C18.3856 17.7113 17.9503 18.675 17.4553 19.3471C16.9833 19.988 16.5443 20.2471 15.9995 20.2471V21.7471ZM20.299 17.1075C20.46 16.7476 20.6246 16.3797 20.7986 16.004L19.4374 15.3737C19.2587 15.7596 19.0903 16.1362 18.9298 16.4949L20.299 17.1075ZM20.7986 16.004C21.1097 15.3321 21.4033 14.6305 21.6562 13.9216L20.2434 13.4175C20.0083 14.0765 19.7329 14.7357 19.4374 15.3737L20.7986 16.004ZM21.6562 13.9216C22.0589 12.7929 22.3656 11.6266 22.4683 10.5217L20.9747 10.3829C20.8875 11.3218 20.6208 12.3599 20.2434 13.4175L21.6562 13.9216ZM22.4683 10.5217C22.4916 10.2709 22.5 10.0248 22.4946 9.78361L20.995 9.81713C20.9991 10.0007 20.9927 10.1892 20.9747 10.3829L22.4683 10.5217ZM22.4946 9.78362C22.4759 8.94721 22.2919 8.17959 22.0011 7.48779L20.6183 8.06906C20.8421 8.60165 20.9808 9.18406 20.995 9.81712L22.4946 9.78362ZM22.0011 7.48779C21.0285 5.17415 18.8681 3.70942 17.5956 3.15348L16.995 4.52802C18.0617 4.99405 19.8473 6.23505 20.6183 8.06906L22.0011 7.48779ZM17.2953 3.09075H12.022V4.59075H17.2953V3.09075ZM6.74865 4.59075H12.022V3.09075H6.74865V4.59075Z" fill="#1C1C1C"/>
</g>
<rect id="Rectangle 687" x="4.70117" y="16.499" width="14.5829" height="2.1709" fill="#1C1C1C"/>
<rect id="Rectangle 685" x="2.625" y="10.749" width="18.7335" height="3.56" fill="#1C1C1C"/>
<rect id="Rectangle 686" x="2.97656" y="6.18848" width="18.0321" height="2.2" fill="#1C1C1C"/>
<rect id="Rectangle 691" x="4.24316" y="3.21387" width="15.5144" height="1" rx="0.5" fill="#1C1C1C" stroke="#1C1C1C"/>
<g id="Union_2">
<mask id="path-7-inside-1_1508_10248" fill="white">
<path fill-rule="evenodd" clip-rule="evenodd" d="M3.21094 4.11833C3.21094 3.13933 4.00457 2.3457 4.98356 2.3457H14.5908C15.5698 2.3457 16.3635 3.13933 16.3635 4.11833C16.3635 5.09732 15.5698 5.89095 14.5908 5.89095H10.997C10.998 5.91144 10.9985 5.93205 10.9985 5.95278V8.80936C10.9985 9.50576 10.4339 10.0703 9.73752 10.0703C9.52141 10.0703 9.318 10.0159 9.14021 9.92015V13.3986C9.14021 14.6245 8.1465 15.6182 6.92069 15.6182C5.69488 15.6182 4.70117 14.6245 4.70117 13.3986L4.70117 5.86858C3.85639 5.73334 3.21094 5.00121 3.21094 4.11833Z"/>
</mask>
<path fill-rule="evenodd" clip-rule="evenodd" d="M3.21094 4.11833C3.21094 3.13933 4.00457 2.3457 4.98356 2.3457H14.5908C15.5698 2.3457 16.3635 3.13933 16.3635 4.11833C16.3635 5.09732 15.5698 5.89095 14.5908 5.89095H10.997C10.998 5.91144 10.9985 5.93205 10.9985 5.95278V8.80936C10.9985 9.50576 10.4339 10.0703 9.73752 10.0703C9.52141 10.0703 9.318 10.0159 9.14021 9.92015V13.3986C9.14021 14.6245 8.1465 15.6182 6.92069 15.6182C5.69488 15.6182 4.70117 14.6245 4.70117 13.3986L4.70117 5.86858C3.85639 5.73334 3.21094 5.00121 3.21094 4.11833Z" fill="#FDCB07"/>
<path d="M10.997 5.89095V4.89095C10.7234 4.89095 10.4618 5.00304 10.273 5.2011C10.0843 5.39916 9.98496 5.6659 9.99815 5.93917L10.997 5.89095ZM9.14021 9.92015L9.61459 9.03982C9.30469 8.87283 8.92981 8.88108 8.62756 9.06155C8.32531 9.24202 8.14021 9.56812 8.14021 9.92015H9.14021ZM4.70117 13.3986H3.70117H4.70117ZM4.70117 5.86858H5.70117C5.70117 5.37732 5.34433 4.95881 4.85925 4.88115L4.70117 5.86858ZM4.98356 1.3457C3.45228 1.3457 2.21094 2.58705 2.21094 4.11833H4.21094C4.21094 3.69162 4.55685 3.3457 4.98356 3.3457V1.3457ZM14.5908 1.3457H4.98356V3.3457H14.5908V1.3457ZM17.3635 4.11833C17.3635 2.58705 16.1221 1.3457 14.5908 1.3457V3.3457C15.0176 3.3457 15.3635 3.69162 15.3635 4.11833H17.3635ZM14.5908 6.89095C16.1221 6.89095 17.3635 5.6496 17.3635 4.11833H15.3635C15.3635 4.54503 15.0176 4.89095 14.5908 4.89095V6.89095ZM10.997 6.89095H14.5908V4.89095H10.997V6.89095ZM11.9985 5.95278C11.9985 5.91596 11.9976 5.87927 11.9958 5.84273L9.99815 5.93917C9.99836 5.9436 9.99848 5.94814 9.99848 5.95278H11.9985ZM11.9985 8.80936V5.95278H9.99848V8.80936H11.9985ZM9.73752 11.0703C10.9862 11.0703 11.9985 10.058 11.9985 8.80936H9.99848C9.99848 8.95348 9.88164 9.07031 9.73752 9.07031V11.0703ZM8.66584 10.8005C8.98579 10.9729 9.35176 11.0703 9.73752 11.0703V9.07031C9.69105 9.07031 9.6502 9.05901 9.61459 9.03982L8.66584 10.8005ZM8.14021 9.92015V13.3986H10.1402V9.92015H8.14021ZM8.14021 13.3986C8.14021 14.0722 7.59421 14.6182 6.92069 14.6182V16.6182C8.69878 16.6182 10.1402 15.1767 10.1402 13.3986H8.14021ZM6.92069 14.6182C6.24717 14.6182 5.70117 14.0722 5.70117 13.3986H3.70117C3.70117 15.1767 5.1426 16.6182 6.92069 16.6182V14.6182ZM5.70117 13.3986L5.70117 5.86858H3.70117L3.70117 13.3986H5.70117ZM2.21094 4.11833C2.21094 5.50023 3.22093 6.64434 4.5431 6.85601L4.85925 4.88115C4.49186 4.82234 4.21094 4.50219 4.21094 4.11833H2.21094Z" fill="#FDCB07" mask="url(#path-7-inside-1_1508_10248)"/>
</g>
</g>
</svg>
