<svg width="20" height="19" viewBox="0 0 20 19" fill="none" xmlns="http://www.w3.org/2000/svg">
<path d="M11.0142 17.2583L11.0126 17.2597C10.4436 17.7763 9.56636 17.7762 8.99743 17.2521L8.99503 17.25L8.88503 17.15L8.88415 17.1492C6.24868 14.7647 4.11274 12.8287 2.64534 11.0097C1.18523 9.19983 0.439204 7.56783 0.498392 5.79713C0.553102 4.25091 1.34629 2.77048 2.62008 1.90322L2.62036 1.90304C5.01839 0.268016 7.9986 1.01864 9.61854 2.91471L9.99869 3.35966L10.3788 2.91471C11.9998 1.01742 14.9795 0.259265 17.376 1.90231L17.3773 1.90322C18.6512 2.77056 19.4444 4.25119 19.499 5.79756L19.499 5.79795C19.5629 7.56793 18.8174 9.19951 17.3557 11.0123C15.8929 12.8265 13.7661 14.7589 11.1452 17.1401L11.1142 17.1683L11.1125 17.1699L11.0142 17.2583Z" fill="#FF0000" stroke="#FF0000"/>
</svg>
