<svg width="18" height="18" viewBox="0 0 18 18" fill="none" xmlns="http://www.w3.org/2000/svg">
<g id="ic_git" clip-path="url(#clip0_857_2273)">
<path id="Vector" d="M9 0.219727C9.82617 0.219727 10.623 0.325195 11.3906 0.536133C12.1582 0.74707 12.873 1.05176 13.5352 1.4502C14.1973 1.84863 14.8037 2.31738 15.3545 2.85645C15.9053 3.39551 16.377 4.00195 16.7695 4.67578C17.1621 5.34961 17.4639 6.06738 17.6748 6.8291C17.8857 7.59082 17.9941 8.3877 18 9.21973C18 10.1865 17.8535 11.1182 17.5605 12.0146C17.2676 12.9111 16.8486 13.7344 16.3037 14.4844C15.7588 15.2344 15.1113 15.8906 14.3613 16.4531C13.6113 17.0156 12.7734 17.4521 11.8477 17.7627C11.8301 17.7686 11.8037 17.7715 11.7686 17.7715C11.7334 17.7715 11.707 17.7744 11.6895 17.7803C11.5488 17.7803 11.4375 17.7393 11.3555 17.6572C11.2734 17.5752 11.2324 17.4668 11.2324 17.332V16.1016C11.2324 15.6973 11.2354 15.2842 11.2412 14.8623C11.2412 14.5635 11.1973 14.2617 11.1094 13.957C11.0215 13.6523 10.8633 13.3975 10.6348 13.1924C11.3145 13.1162 11.9092 12.9785 12.4189 12.7793C12.9287 12.5801 13.3564 12.2988 13.7021 11.9355C14.0479 11.5723 14.3057 11.1328 14.4756 10.6172C14.6455 10.1016 14.7334 9.48047 14.7393 8.75391C14.7393 8.29688 14.6631 7.86621 14.5107 7.46191C14.3584 7.05762 14.127 6.68262 13.8164 6.33691C13.8809 6.17285 13.9277 6.00293 13.957 5.82715C13.9863 5.65137 14.001 5.47559 14.001 5.2998C14.001 5.07129 13.9775 4.8457 13.9307 4.62305C13.8838 4.40039 13.8164 4.17773 13.7285 3.95508C13.6992 3.94336 13.667 3.9375 13.6318 3.9375C13.5967 3.9375 13.5645 3.9375 13.5352 3.9375C13.3477 3.9375 13.1514 3.9668 12.9463 4.02539C12.7412 4.08398 12.5391 4.16016 12.3398 4.25391C12.1406 4.34766 11.9443 4.4502 11.751 4.56152C11.5576 4.67285 11.3906 4.77832 11.25 4.87793C10.5176 4.67285 9.76758 4.57031 9 4.57031C8.23242 4.57031 7.48242 4.67285 6.75 4.87793C6.60352 4.77832 6.43652 4.67285 6.24902 4.56152C6.06152 4.4502 5.86816 4.35059 5.66895 4.2627C5.46973 4.1748 5.26465 4.09863 5.05371 4.03418C4.84277 3.96973 4.64648 3.9375 4.46484 3.9375H4.36816C4.33301 3.9375 4.30078 3.94336 4.27148 3.95508C4.18945 4.17188 4.125 4.3916 4.07812 4.61426C4.03125 4.83691 4.00488 5.06543 3.99902 5.2998C3.99902 5.47559 4.01367 5.65137 4.04297 5.82715C4.07227 6.00293 4.11914 6.17285 4.18359 6.33691C3.87305 6.67676 3.6416 7.04883 3.48926 7.45312C3.33691 7.85742 3.26074 8.29102 3.26074 8.75391C3.26074 9.46875 3.3457 10.0869 3.51562 10.6084C3.68555 11.1299 3.94336 11.5693 4.28906 11.9268C4.63477 12.2842 5.0625 12.5684 5.57227 12.7793C6.08203 12.9902 6.67676 13.1309 7.35645 13.2012C7.18652 13.3535 7.05762 13.5352 6.96973 13.7461C6.88184 13.957 6.82031 14.1768 6.78516 14.4053C6.62695 14.4814 6.45996 14.54 6.28418 14.5811C6.1084 14.6221 5.93262 14.6426 5.75684 14.6426C5.38184 14.6426 5.07129 14.5547 4.8252 14.3789C4.5791 14.2031 4.35938 13.9629 4.16602 13.6582C4.0957 13.5469 4.01074 13.4355 3.91113 13.3242C3.81152 13.2129 3.70312 13.1133 3.58594 13.0254C3.46875 12.9375 3.34277 12.8672 3.20801 12.8145C3.07324 12.7617 2.93262 12.7324 2.78613 12.7266H2.68066C2.63379 12.7266 2.58984 12.7354 2.54883 12.7529C2.50781 12.7705 2.4668 12.7881 2.42578 12.8057C2.38477 12.8232 2.36719 12.8525 2.37305 12.8936C2.37305 12.9639 2.41406 13.0312 2.49609 13.0957C2.57812 13.1602 2.64551 13.2129 2.69824 13.2539L2.72461 13.2715C2.85352 13.3711 2.96484 13.4648 3.05859 13.5527C3.15234 13.6406 3.24023 13.7373 3.32227 13.8428C3.4043 13.9482 3.47168 14.0596 3.52441 14.1768C3.57715 14.2939 3.64453 14.4316 3.72656 14.5898C3.92578 15.0469 4.2041 15.3779 4.56152 15.583C4.91895 15.7881 5.34961 15.8936 5.85352 15.8994C6.00586 15.8994 6.1582 15.8906 6.31055 15.873C6.46289 15.8555 6.61523 15.8291 6.76758 15.7939V17.3232C6.76758 17.4639 6.72656 17.5752 6.64453 17.6572C6.5625 17.7393 6.44824 17.7803 6.30176 17.7803H6.23145C6.20215 17.7803 6.17578 17.7744 6.15234 17.7627C5.23242 17.4639 4.39453 17.0332 3.63867 16.4707C2.88281 15.9082 2.23535 15.249 1.69629 14.4932C1.15723 13.7373 0.741211 12.9111 0.448242 12.0146C0.155273 11.1182 0.00585938 10.1865 0 9.21973C0 8.39355 0.105469 7.59668 0.316406 6.8291C0.527344 6.06152 0.832031 5.34668 1.23047 4.68457C1.62891 4.02246 2.09766 3.41602 2.63672 2.86523C3.17578 2.31445 3.78223 1.84277 4.45605 1.4502C5.12988 1.05762 5.84766 0.755859 6.60938 0.544922C7.37109 0.333984 8.16797 0.225586 9 0.219727Z" fill="#1C1C1C"/>
</g>
<defs>
<clipPath id="clip0_857_2273">
<rect width="18" height="18" fill="white"/>
</clipPath>
</defs>
</svg>
