<svg width="23" height="22" viewBox="0 0 23 22" fill="none" xmlns="http://www.w3.org/2000/svg">
<path id="Star 5" d="M10.9056 1.32941C11.0927 0.753587 11.9073 0.753588 12.0944 1.32941L14.1661 7.70542C14.2498 7.96294 14.4897 8.13729 14.7605 8.13729H21.4647C22.0701 8.13729 22.3218 8.91205 21.832 9.26792L16.4083 13.2085C16.1892 13.3677 16.0975 13.6498 16.1812 13.9073L18.2529 20.2833C18.44 20.8591 17.781 21.338 17.2911 20.9821L11.8674 17.0415C11.6483 16.8823 11.3517 16.8823 11.1326 17.0415L5.70887 20.9821C5.21905 21.338 4.56 20.8591 4.74709 20.2833L6.81879 13.9073C6.90246 13.6498 6.8108 13.3677 6.59174 13.2085L1.16798 9.26792C0.678158 8.91205 0.929894 8.13729 1.53535 8.13729H8.23949C8.51025 8.13729 8.75023 7.96294 8.8339 7.70542L10.9056 1.32941Z" fill="#C4C4C4"/>
</svg>
