<svg width="25" height="26" viewBox="0 0 25 26" fill="none" xmlns="http://www.w3.org/2000/svg">
<g id="&#235;&#179;&#132; &#235;&#176;&#152;&#236;&#170;&#189;">
<path id="Star 6" d="M11.9056 2.32941C12.0927 1.75359 12.9073 1.75359 13.0944 2.32941L15.1661 8.70542C15.2498 8.96294 15.4897 9.13729 15.7605 9.13729H22.4647C23.0701 9.13729 23.3218 9.91205 22.832 10.2679L17.4083 14.2085C17.1892 14.3677 17.0975 14.6498 17.1812 14.9073L19.2529 21.2833C19.44 21.8591 18.781 22.338 18.2911 21.9821L12.8674 18.0415C12.6483 17.8823 12.3517 17.8823 12.1326 18.0415L6.70887 21.9821C6.21905 22.338 5.56 21.8591 5.74709 21.2833L7.81879 14.9073C7.90246 14.6498 7.8108 14.3677 7.59174 14.2085L2.16798 10.2679C1.67816 9.91205 1.92989 9.13729 2.53535 9.13729H9.23949C9.51025 9.13729 9.75023 8.96294 9.8339 8.70542L11.9056 2.32941Z" fill="#C4C4C4"/>
<path id="Subtract" fill-rule="evenodd" clip-rule="evenodd" d="M12.5001 1.89746C12.2496 1.89745 11.9992 2.0414 11.9056 2.32932L9.83393 8.70534C9.75026 8.96286 9.51029 9.13721 9.23952 9.13721H2.53538C1.92993 9.13721 1.67819 9.91197 2.16801 10.2678L7.59178 14.2084C7.81083 14.3676 7.90249 14.6497 7.81882 14.9072L5.74713 21.2832C5.56003 21.859 6.21908 22.3379 6.7089 21.982L12.1327 18.0414C12.2422 17.9618 12.3711 17.922 12.5001 17.922V1.89746Z" fill="#F2D027"/>
</g>
</svg>
