<svg width="24" height="24" viewBox="0 0 24 24" fill="none" xmlns="http://www.w3.org/2000/svg">
<g id="star_half">
<path id="fill" d="M14.8103 8.62L19.6503 9.04C20.5303 9.11 20.8803 10.21 20.2103 10.79L16.5403 13.97L17.6403 18.7C17.8403 19.56 16.9103 20.24 16.1503 19.78L12.0003 17.27L7.85032 19.77C7.09032 20.23 6.16032 19.55 6.36032 18.69L7.46032 13.97L3.79032 10.79C3.12032 10.21 3.48032 9.11 4.36032 9.04L9.19032 8.63L11.0803 4.17C11.4203 3.36 12.5803 3.36 12.9203 4.17L14.8103 8.62Z" fill="#C4C4C4"/>
<path id="Vector" d="M9.19032 8.63007L11.0803 4.17007C11.2899 3.67544 11.781 3.56163 12.0003 3.56656V6.10007V15.4001V17.2701L7.85032 19.7701C7.09032 20.2301 6.16032 19.5501 6.36032 18.6901L7.46032 13.9701L3.79032 10.7901C3.12032 10.2101 3.48032 9.11007 4.36032 9.04007L9.19032 8.63007Z" fill="#FDCB07"/>
</g>
</svg>
