<svg width="18" height="18" viewBox="0 0 18 18" fill="none" xmlns="http://www.w3.org/2000/svg">
<g id="link" clip-path="url(#clip0_857_2289)">
<path id="Vector" d="M12.75 5.25H10.5C10.0875 5.25 9.75 5.5875 9.75 6C9.75 6.4125 10.0875 6.75 10.5 6.75H12.75C13.9875 6.75 15 7.7625 15 9C15 10.2375 13.9875 11.25 12.75 11.25H10.5C10.0875 11.25 9.75 11.5875 9.75 12C9.75 12.4125 10.0875 12.75 10.5 12.75H12.75C14.82 12.75 16.5 11.07 16.5 9C16.5 6.93 14.82 5.25 12.75 5.25ZM6 9C6 9.4125 6.3375 9.75 6.75 9.75H11.25C11.6625 9.75 12 9.4125 12 9C12 8.5875 11.6625 8.25 11.25 8.25H6.75C6.3375 8.25 6 8.5875 6 9ZM7.5 11.25H5.25C4.0125 11.25 3 10.2375 3 9C3 7.7625 4.0125 6.75 5.25 6.75H7.5C7.9125 6.75 8.25 6.4125 8.25 6C8.25 5.5875 7.9125 5.25 7.5 5.25H5.25C3.18 5.25 1.5 6.93 1.5 9C1.5 11.07 3.18 12.75 5.25 12.75H7.5C7.9125 12.75 8.25 12.4125 8.25 12C8.25 11.5875 7.9125 11.25 7.5 11.25Z" fill="#1C1C1C"/>
</g>
<defs>
<clipPath id="clip0_857_2289">
<rect width="18" height="18" fill="white"/>
</clipPath>
</defs>
</svg>
