<svg width="61" height="16" viewBox="0 0 61 16" fill="none" xmlns="http://www.w3.org/2000/svg">
<path id="Union" fill-rule="evenodd" clip-rule="evenodd" d="M56.4105 -1.6455e-07L60.1938 0L60.1938 15.999L56.4105 15.999L56.4105 -1.6455e-07ZM55.4652 15.5281L52.1551 15.5281L52.1551 15.5282L43.1698 15.5282L43.1698 15.5281L39.3863 15.5281L39.3863 0.470253L43.6425 0.470253L43.6425 5.17591L51.209 5.17591L51.209 0.470253L55.4652 0.470254L55.4652 15.5281ZM43.6425 12.2343L43.6425 8.46982L51.209 8.46982L51.209 12.2343L43.6425 12.2343ZM37.9673 -9.66713e-07L37.9673 4.23503L25.6711 4.23503L25.6711 11.7642L37.9673 11.7642L37.9673 15.9992L21.8883 15.9992L21.8883 12.2344L21.8878 12.2344L21.8878 3.29375L21.8883 3.29375L21.8883 -1.66605e-06L37.9673 -9.66713e-07ZM15.2674 4.23503L12.9028 4.23503L12.9028 11.7642L15.2674 11.7642L15.2674 15.9992L0.13417 15.9992L0.13417 11.7642L2.49867 11.7642L2.49867 4.23503L0.13417 4.23503L0.134171 -5.9811e-08L15.2674 7.6294e-07L15.2674 4.23503ZM5.80907 11.7642L9.59244 11.7642L9.59244 4.23503L5.80906 4.23503L5.80907 11.7642ZM19.9961 -1.74835e-06L16.2128 0L16.2128 15.999L19.9961 15.999L19.9961 -1.74835e-06Z" fill="#1C1C1C"/>
</svg>
