<svg width="18" height="18" viewBox="0 0 18 18" fill="none" xmlns="http://www.w3.org/2000/svg">
<g id="ic_notion" clip-path="url(#clip0_857_2286)">
<path id="Vector" d="M3.3442 3.1563C3.9037 3.6108 4.1137 3.5763 5.1652 3.5058L15.0764 2.91105C15.2864 2.91105 15.1117 2.70105 15.0419 2.66655L13.3949 1.4763C13.0799 1.2318 12.6592 0.951302 11.8537 1.02105L2.25745 1.72155C1.90795 1.75605 1.83745 1.93155 1.97695 2.07105L3.3442 3.1563ZM3.93895 5.4663V15.8943C3.93895 16.4546 4.2187 16.6646 4.84945 16.6293L15.7417 15.9993C16.3724 15.9648 16.4429 15.5793 16.4429 15.1241V4.7658C16.4429 4.3113 16.2682 4.06605 15.8819 4.10055L4.4992 4.7658C4.0792 4.80105 3.93895 5.0118 3.93895 5.4663ZM14.6917 6.02505C14.7614 6.34005 14.6917 6.65505 14.3767 6.69105L13.8517 6.79605V14.4941C13.3957 14.7393 12.9757 14.8796 12.6254 14.8796C12.0644 14.8796 11.9242 14.7041 11.5042 14.1798L8.07145 8.7903V14.0043L9.15745 14.2503C9.15745 14.2503 9.15745 14.8803 8.28145 14.8803L5.86495 15.0198C5.7952 14.8803 5.86495 14.5301 6.1102 14.4603L6.7402 14.2856V7.3908L5.86645 7.3203C5.79595 7.0053 5.97145 6.5508 6.4612 6.51555L9.0532 6.3408L12.6262 11.8001V6.97005L11.7149 6.8658C11.6452 6.4803 11.9249 6.20055 12.2752 6.16605L14.6917 6.02505ZM1.45195 0.776552L11.4344 0.0415522C12.6599 -0.0634478 12.9757 0.00630224 13.7459 0.566552L16.9327 2.80605C17.4577 3.1908 17.6332 3.2958 17.6332 3.7158V15.9993C17.6332 16.7688 17.3534 17.2248 16.3732 17.2938L4.7797 17.9943C4.0447 18.0296 3.6937 17.9246 3.3082 17.4341L0.961449 14.3891C0.541449 13.8288 0.366699 13.4096 0.366699 12.9191V2.00055C0.366699 1.3713 0.647199 0.845552 1.45195 0.776552Z" fill="#1C1C1C"/>
</g>
<defs>
<clipPath id="clip0_857_2286">
<rect width="18" height="18" fill="white"/>
</clipPath>
</defs>
</svg>
