<svg width="20" height="20" viewBox="0 0 20 20" fill="none" xmlns="http://www.w3.org/2000/svg">
<g id="add" clip-path="url(#clip0_884_1523)">
<path id="Vector" d="M15 10.8337H10.8334V15.0003C10.8334 15.4587 10.4584 15.8337 10 15.8337C9.54169 15.8337 9.16669 15.4587 9.16669 15.0003V10.8337H5.00002C4.54169 10.8337 4.16669 10.4587 4.16669 10.0003C4.16669 9.54199 4.54169 9.16699 5.00002 9.16699H9.16669V5.00033C9.16669 4.54199 9.54169 4.16699 10 4.16699C10.4584 4.16699 10.8334 4.54199 10.8334 5.00033V9.16699H15C15.4584 9.16699 15.8334 9.54199 15.8334 10.0003C15.8334 10.4587 15.4584 10.8337 15 10.8337Z" fill="#2E4EEB"/>
</g>
<defs>
<clipPath id="clip0_884_1523">
<rect width="20" height="20" fill="white"/>
</clipPath>
</defs>
</svg>
