<svg width="20" height="21" viewBox="0 0 20 21" fill="none" xmlns="http://www.w3.org/2000/svg">
<g id="forum" clip-path="url(#clip0_733_11638)">
<path id="Vector" d="M16.6667 5.50033H15.8334V12.167C15.8334 12.6253 15.4584 13.0003 15.0001 13.0003H5.00008V13.8337C5.00008 14.7503 5.75008 15.5003 6.66675 15.5003H15.0001L18.3334 18.8337V7.16699C18.3334 6.25033 17.5834 5.50033 16.6667 5.50033ZM14.1667 9.66699V3.83366C14.1667 2.91699 13.4167 2.16699 12.5001 2.16699H3.33341C2.41675 2.16699 1.66675 2.91699 1.66675 3.83366V14.667L5.00008 11.3337H12.5001C13.4167 11.3337 14.1667 10.5837 14.1667 9.66699Z" fill="#5871EF"/>
</g>
<defs>
<clipPath id="clip0_733_11638">
<rect width="20" height="20" fill="white" transform="translate(0 0.5)"/>
</clipPath>
</defs>
</svg>
