<svg width="16" height="16" viewBox="0 0 16 16" fill="none" xmlns="http://www.w3.org/2000/svg">
<g id="Icons/Basic/Update">
<path id="update" fill-rule="evenodd" clip-rule="evenodd" d="M8.29757 1.77574C8.06326 1.54143 7.68336 1.54143 7.44904 1.77574C7.21473 2.01006 7.21473 2.38996 7.44904 2.62427L8.51987 3.6951C8.44013 3.69544 8.3618 3.69626 8.28935 3.69723C8.13887 3.69926 7.99853 3.70229 7.89595 3.70481C7.84459 3.70607 7.80254 3.7072 7.77323 3.70803L7.73921 3.70901L7.73606 3.7091C4.78812 3.71412 2.3999 6.10544 2.3999 9.05455C2.3999 12.0068 4.79314 14.4 7.74536 14.4C10.6976 14.4 13.0908 12.0068 13.0908 9.05455C13.0908 8.72318 12.8222 8.45455 12.4908 8.45455C12.1594 8.45455 11.8908 8.72318 11.8908 9.05455C11.8908 11.344 10.0348 13.2 7.74536 13.2C5.45589 13.2 3.5999 11.344 3.5999 9.05455C3.5999 6.76508 5.45589 4.9091 7.74536 4.9091C7.75154 4.9091 7.75772 4.909 7.7639 4.90881L7.76391 4.90881L7.764 4.90881L7.76447 4.90879L7.76648 4.90873L7.77473 4.90848L7.80697 4.90756C7.83504 4.90677 7.87565 4.90567 7.92541 4.90445C8.02505 4.902 8.16073 4.89907 8.30549 4.89712C8.48743 4.89467 8.66479 4.89417 8.80228 4.89656L7.44904 6.2498C7.21473 6.48412 7.21473 6.86402 7.44904 7.09833C7.68336 7.33264 8.06326 7.33264 8.29757 7.09833L10.5346 4.8613C10.7689 4.62699 10.7689 4.24709 10.5346 4.01277L8.29757 1.77574Z" fill="#5177FF"/>
</g>
</svg>
