<svg width="24" height="24" viewBox="0 0 24 24" fill="none" xmlns="http://www.w3.org/2000/svg">
<g id="share">
<path id="Vector" d="M18 16.0851C17.24 16.0851 16.555 16.3801 16.035 16.8551L8.91 12.7001C8.965 12.4751 9 12.2401 9 12.0001C9 11.7601 8.965 11.5251 8.91 11.3001L15.96 7.18512C16.495 7.68512 17.21 7.99512 18 7.99512C19.655 7.99512 21 6.65012 21 4.99512C21 3.34012 19.655 1.99512 18 1.99512C16.345 1.99512 15 3.34012 15 4.99512C15 5.23512 15.035 5.47012 15.09 5.69512L8.04 9.81012C7.505 9.31012 6.79 9.00012 6 9.00012C4.345 9.00012 3 10.3451 3 12.0001C3 13.6551 4.345 15.0001 6 15.0001C6.79 15.0001 7.505 14.6901 8.04 14.1901L15.165 18.3451C15.115 18.5551 15.085 18.7751 15.085 19.0001C15.085 20.6101 16.39 21.9151 18 21.9151C19.61 21.9151 20.915 20.6101 20.915 19.0001C20.915 17.3901 19.61 16.0851 18 16.0851Z" fill="#1C1C1C"/>
</g>
</svg>
