<svg width="27" height="26" viewBox="0 0 27 26" fill="none" xmlns="http://www.w3.org/2000/svg">
<path id="Star 1" d="M12.5489 0.927047C12.8483 0.00573683 14.1517 0.00573993 14.4511 0.927051L16.8677 8.36475C17.0016 8.77677 17.3855 9.05573 17.8188 9.05573H25.6392C26.6079 9.05573 27.0107 10.2953 26.227 10.8647L19.9001 15.4615C19.5496 15.7161 19.403 16.1675 19.5369 16.5795L21.9535 24.0172C22.2529 24.9385 21.1984 25.7047 20.4147 25.1353L14.0878 20.5385C13.7373 20.2839 13.2627 20.2839 12.9122 20.5385L6.58533 25.1353C5.80162 25.7047 4.74714 24.9385 5.04649 24.0172L7.46315 16.5795C7.59702 16.1675 7.45036 15.7161 7.09987 15.4615L0.772991 10.8647C-0.0107229 10.2953 0.392056 9.05573 1.36078 9.05573H9.18123C9.61446 9.05573 9.99842 8.77677 10.1323 8.36475L12.5489 0.927047Z" fill="#EFC55A"/>
</svg>
