<svg width="21" height="21" viewBox="0 0 21 21" fill="none" xmlns="http://www.w3.org/2000/svg">
<g id="Icon">
<path id="Vector" d="M10.4999 13.8333C10.2638 13.8333 10.0658 13.7533 9.90575 13.5933C9.74575 13.4333 9.66603 13.2356 9.66659 13V7.04167L8.10409 8.60417C7.93742 8.77083 7.74298 8.85417 7.52075 8.85417C7.29853 8.85417 7.09714 8.76389 6.91659 8.58333C6.74992 8.41667 6.6702 8.21889 6.67742 7.99C6.68464 7.76111 6.76436 7.57 6.91659 7.41667L9.91659 4.41667C9.99992 4.33333 10.0902 4.27444 10.1874 4.24C10.2846 4.20556 10.3888 4.18806 10.4999 4.1875C10.611 4.1875 10.7152 4.205 10.8124 4.24C10.9096 4.275 10.9999 4.33389 11.0833 4.41667L14.0833 7.41667C14.2499 7.58333 14.3299 7.78139 14.3233 8.01083C14.3166 8.24028 14.2366 8.43111 14.0833 8.58333C13.9166 8.75 13.7185 8.83694 13.4891 8.84417C13.2596 8.85139 13.0619 8.77139 12.8958 8.60417L11.3333 7.04167V13C11.3333 13.2361 11.2533 13.4342 11.0933 13.5942C10.9333 13.7542 10.7355 13.8339 10.4999 13.8333ZM5.49992 17.1667C5.04159 17.1667 4.64909 17.0033 4.32242 16.6767C3.99575 16.35 3.8327 15.9578 3.83325 15.5V13.8333C3.83325 13.5972 3.91325 13.3992 4.07325 13.2392C4.23325 13.0792 4.43103 12.9994 4.66659 13C4.9027 13 5.10075 13.08 5.26075 13.24C5.42075 13.4 5.50048 13.5978 5.49992 13.8333V15.5H15.4999V13.8333C15.4999 13.5972 15.5799 13.3992 15.7399 13.2392C15.8999 13.0792 16.0977 12.9994 16.3333 13C16.5694 13 16.7674 13.08 16.9274 13.24C17.0874 13.4 17.1671 13.5978 17.1666 13.8333V15.5C17.1666 15.9583 17.0033 16.3508 16.6766 16.6775C16.3499 17.0042 15.9577 17.1672 15.4999 17.1667H5.49992Z" fill="white"/>
</g>
</svg>
