<svg width="21" height="20" viewBox="0 0 21 20" fill="none" xmlns="http://www.w3.org/2000/svg">
<g id="upload" clip-path="url(#clip0_504_485)">
<path id="Vector" d="M8.83341 13.3331H12.1667C12.6251 13.3331 13.0001 12.9581 13.0001 12.4998V8.33311H14.3251C15.0667 8.33311 15.4417 7.43311 14.9167 6.90811L11.0917 3.08311C10.7667 2.75811 10.2417 2.75811 9.91675 3.08311L6.09175 6.90811C5.56675 7.43311 5.93341 8.33311 6.67508 8.33311H8.00008V12.4998C8.00008 12.9581 8.37508 13.3331 8.83341 13.3331ZM5.50008 14.9998H15.5001C15.9584 14.9998 16.3334 15.3748 16.3334 15.8331C16.3334 16.2914 15.9584 16.6664 15.5001 16.6664H5.50008C5.04175 16.6664 4.66675 16.2914 4.66675 15.8331C4.66675 15.3748 5.04175 14.9998 5.50008 14.9998Z" fill="white"/>
</g>
<defs>
<clipPath id="clip0_504_485">
<rect width="20" height="20" fill="white" transform="translate(0.5)"/>
</clipPath>
</defs>
</svg>
