<svg width="40" height="40" viewBox="0 0 40 40" fill="none" xmlns="http://www.w3.org/2000/svg">
<g id="warning">
<path id="Vector" d="M7.45012 35.0001H32.5501C35.1168 35.0001 36.7168 32.2168 35.4335 30.0001L22.8835 8.3168C21.6001 6.10013 18.4001 6.10013 17.1168 8.3168L4.56679 30.0001C3.28345 32.2168 4.88345 35.0001 7.45012 35.0001ZM20.0001 23.3335C19.0835 23.3335 18.3335 22.5835 18.3335 21.6668V18.3335C18.3335 17.4168 19.0835 16.6668 20.0001 16.6668C20.9168 16.6668 21.6668 17.4168 21.6668 18.3335V21.6668C21.6668 22.5835 20.9168 23.3335 20.0001 23.3335ZM21.6668 30.0001H18.3335V26.6668H21.6668V30.0001Z" fill="#C21B1B"/>
</g>
</svg>
