<svg width="24" height="25" viewBox="0 0 24 25" fill="none" xmlns="http://www.w3.org/2000/svg">
<g id="mdi:web">
<path id="Vector" d="M16.36 14.6094C16.44 13.9494 16.5 13.2894 16.5 12.6094C16.5 11.9294 16.44 11.2694 16.36 10.6094H19.74C19.9 11.2494 20 11.9194 20 12.6094C20 13.2994 19.9 13.9694 19.74 14.6094M14.59 20.1694C15.19 19.0594 15.65 17.8594 15.97 16.6094H18.92C17.9512 18.2777 16.4141 19.5414 14.59 20.1694ZM14.34 14.6094H9.66C9.56 13.9494 9.5 13.2894 9.5 12.6094C9.5 11.9294 9.56 11.2594 9.66 10.6094H14.34C14.43 11.2594 14.5 11.9294 14.5 12.6094C14.5 13.2894 14.43 13.9494 14.34 14.6094ZM12 20.5694C11.17 19.3694 10.5 18.0394 10.09 16.6094H13.91C13.5 18.0394 12.83 19.3694 12 20.5694ZM8 8.60938H5.08C6.03864 6.93641 7.57466 5.67062 9.4 5.04938C8.8 6.15938 8.35 7.35938 8 8.60938ZM5.08 16.6094H8C8.35 17.8594 8.8 19.0594 9.4 20.1694C7.57827 19.5417 6.04429 18.2776 5.08 16.6094ZM4.26 14.6094C4.1 13.9694 4 13.2994 4 12.6094C4 11.9194 4.1 11.2494 4.26 10.6094H7.64C7.56 11.2694 7.5 11.9294 7.5 12.6094C7.5 13.2894 7.56 13.9494 7.64 14.6094M12 4.63938C12.83 5.83938 13.5 7.17938 13.91 8.60938H10.09C10.5 7.17938 11.17 5.83938 12 4.63938ZM18.92 8.60938H15.97C15.6565 7.37099 15.1931 6.17548 14.59 5.04938C16.43 5.67938 17.96 6.94938 18.92 8.60938ZM12 2.60938C6.47 2.60938 2 7.10938 2 12.6094C2 15.2615 3.05357 17.8051 4.92893 19.6804C5.85752 20.609 6.95991 21.3456 8.17317 21.8482C9.38642 22.3507 10.6868 22.6094 12 22.6094C14.6522 22.6094 17.1957 21.5558 19.0711 19.6804C20.9464 17.8051 22 15.2615 22 12.6094C22 11.2962 21.7413 9.9958 21.2388 8.78254C20.7362 7.56928 19.9997 6.46689 19.0711 5.53831C18.1425 4.60972 17.0401 3.87313 15.8268 3.37058C14.6136 2.86803 13.3132 2.60938 12 2.60938Z" fill="#3252FF"/>
</g>
</svg>
