<svg width="18" height="18" viewBox="0 0 18 18" fill="none" xmlns="http://www.w3.org/2000/svg">
<g id="delete" clip-path="url(#clip0_1210_2287)">
<path id="Vector" d="M4.63636 14.0905C4.63636 14.8905 5.29091 15.545 6.09091 15.545H11.9091C12.7091 15.545 13.3636 14.8905 13.3636 14.0905V6.81774C13.3636 6.01774 12.7091 5.36319 11.9091 5.36319H6.09091C5.29091 5.36319 4.63636 6.01774 4.63636 6.81774V14.0905ZM13.3636 3.18137H11.5455L11.0291 2.66501C10.8982 2.5341 10.7091 2.4541 10.52 2.4541H7.48C7.29091 2.4541 7.10182 2.5341 6.97091 2.66501L6.45454 3.18137H4.63636C4.23636 3.18137 3.90909 3.50865 3.90909 3.90865C3.90909 4.30865 4.23636 4.63592 4.63636 4.63592H13.3636C13.7636 4.63592 14.0909 4.30865 14.0909 3.90865C14.0909 3.50865 13.7636 3.18137 13.3636 3.18137Z" fill="white"/>
</g>
<defs>
<clipPath id="clip0_1210_2287">
<rect width="17.4545" height="17.4545" fill="white" transform="translate(0.272736 0.272461)"/>
</clipPath>
</defs>
</svg>
