<svg width="18" height="18" viewBox="0 0 18 18" fill="none" xmlns="http://www.w3.org/2000/svg">
<g id="add" clip-path="url(#clip0_1210_4247)">
<path id="Vector" d="M13.3636 9.72736H9.72727V13.3637C9.72727 13.7637 9.4 14.091 9 14.091C8.6 14.091 8.27272 13.7637 8.27272 13.3637V9.72736H4.63636C4.23636 9.72736 3.90909 9.40009 3.90909 9.00009C3.90909 8.60009 4.23636 8.27282 4.63636 8.27282H8.27272V4.63645C8.27272 4.23645 8.6 3.90918 9 3.90918C9.4 3.90918 9.72727 4.23645 9.72727 4.63645V8.27282H13.3636C13.7636 8.27282 14.0909 8.60009 14.0909 9.00009C14.0909 9.40009 13.7636 9.72736 13.3636 9.72736Z" fill="white"/>
</g>
<defs>
<clipPath id="clip0_1210_4247">
<rect width="17.4545" height="17.4545" fill="white" transform="translate(0.272736 0.272461)"/>
</clipPath>
</defs>
</svg>
