<svg width="80" height="76" viewBox="0 0 80 76" fill="none" xmlns="http://www.w3.org/2000/svg">
<g clip-path="url(#clip0_2340_27242)">
<path d="M48.1532 22.5634C45.7311 -10.9431 9.03796 -1.28529 25.9211 16.9332C30.578 22.6644 47.8793 22.982 48.1532 22.5634Z" fill="#EBEBEB"/>
<path d="M51.8733 22.2592C51.8733 22.2592 53.8197 6.17727 64.5897 8.9779C68.2951 9.93069 73.918 22.2592 51.8733 22.2592Z" fill="#EBEBEB"/>
<path d="M79.2664 55.347C79.3673 89.9506 2.92457 76.5105 15.0355 48.5042C18.5678 34.862 77.6805 19.4874 79.2664 55.347Z" fill="#848A8A"/>
<path d="M15.0364 48.5059L2.65161 54.6846L16.2475 62.4368L14.056 55.724L15.0364 48.5059Z" fill="#848A8A"/>
<path d="M77.3494 49.3714C77.4503 84.0184 1.00758 70.5061 13.1185 42.5287C16.5931 28.872 75.7058 13.5119 77.3494 49.3714Z" stroke="#300707" stroke-width="2.53333" stroke-miterlimit="10"/>
<path d="M37.8313 68.5883V28.5566" stroke="#300707" stroke-width="2.53333" stroke-miterlimit="10"/>
<path d="M28.7766 30.3027V66.2489" stroke="#300707" stroke-width="2.53333" stroke-miterlimit="10"/>
<path d="M20.0383 35.0371V62.6103" stroke="#300707" stroke-width="2.53333" stroke-miterlimit="10"/>
<path d="M13.119 42.5293L0.734131 48.708L14.33 56.4747L12.1385 49.7474L13.119 42.5293Z" fill="#300707"/>
<path d="M63.4368 45.0288L63.4366 45.0359V45.0431C63.4366 46.0123 63.1117 46.4986 62.7681 46.7416C62.3997 47.002 61.8786 47.0764 61.3429 46.964C60.7999 46.85 60.3623 46.5689 60.1589 46.2767C60.0632 46.1392 60.0283 46.0144 60.0318 45.9029C60.0351 45.7935 60.0771 45.6387 60.2367 45.4419C60.5894 45.0068 61.0276 44.5254 61.48 44.1176C61.9436 43.6998 62.3751 43.4023 62.7148 43.2782C62.8798 43.2179 62.9817 43.2142 63.0348 43.2227C63.0705 43.2283 63.1052 43.2407 63.1522 43.2987C63.2853 43.4626 63.4615 43.9317 63.4368 45.0288Z" fill="#1C1C1C" stroke="#1C1C1C" stroke-width="1.26667"/>
<path d="M70.3929 45.414L70.3929 45.414C70.5296 45.603 70.5662 45.7441 70.5707 45.8359C70.5751 45.925 70.5516 46.0101 70.4935 46.0978C70.3653 46.291 70.0651 46.4875 69.6596 46.555C69.2637 46.621 68.877 46.5447 68.6064 46.3389C68.357 46.1493 68.1135 45.7796 68.1223 45.0505C68.1329 44.1836 68.2416 43.7106 68.3553 43.4893C68.3767 43.4477 68.3942 43.4229 68.4057 43.4091C68.4081 43.4096 68.4106 43.4101 68.4134 43.4107C68.5425 43.439 68.8019 43.584 69.1871 43.9618C69.5516 44.3192 69.9604 44.816 70.3929 45.414Z" fill="#1C1C1C" stroke="#1C1C1C" stroke-width="1.26667"/>
<path d="M56.8351 41.0919C60.5537 41.0919 62.2556 39.2112 62.6291 37.6833" stroke="#1C1C1C" stroke-width="0.95" stroke-linecap="round" stroke-linejoin="round"/>
<path d="M70.9589 41.5311C68.6758 41.5311 67.6309 40.3764 67.4016 39.4383" stroke="#1C1C1C" stroke-width="0.95" stroke-linecap="round" stroke-linejoin="round"/>
<path d="M62.7334 50C62.7334 51.6569 62.0618 53 61.2334 53C60.405 53 59.7334 51.6569 59.7334 50C59.7334 48.3431 60.405 47.5 61.2334 47.5C62.0618 47.5 62.7334 48.3431 62.7334 50Z" fill="white"/>
</g>
<defs>
<clipPath id="clip0_2340_27242">
<rect width="78.5333" height="76" fill="white" transform="translate(0.733398)"/>
</clipPath>
</defs>
</svg>
