<svg width="79" height="76" viewBox="0 0 79 76" fill="none" xmlns="http://www.w3.org/2000/svg">
<g clip-path="url(#clip0_2348_14575)">
<path d="M47.4198 22.5624C44.9977 -10.9441 8.30457 -1.28627 25.1877 16.9323C29.8446 22.6634 47.1459 22.981 47.4198 22.5624Z" fill="#EBEBEB"/>
<path d="M51.1399 22.2583C51.1399 22.2583 53.0863 6.17629 63.8563 8.97692C67.5617 9.92971 73.1846 22.2583 51.1399 22.2583Z" fill="#EBEBEB"/>
<path d="M78.533 55.347C78.6339 89.9506 2.19118 76.5105 14.3021 48.5042C17.8344 34.862 76.9471 19.4874 78.533 55.347Z" fill="#F22222"/>
<path d="M14.303 48.5059L1.91821 54.6846L15.5141 62.4368L13.3226 55.724L14.303 48.5059Z" fill="#F22222"/>
<path d="M76.616 49.3714C76.7169 84.0184 0.274184 70.5061 12.3851 42.5287C15.8597 28.872 74.9724 13.5119 76.616 49.3714Z" stroke="#300707" stroke-width="2.53333" stroke-miterlimit="10"/>
<path d="M37.0979 68.5873V28.5557" stroke="#300707" stroke-width="2.53333" stroke-miterlimit="10"/>
<path d="M28.0432 30.3018V66.248" stroke="#300707" stroke-width="2.53333" stroke-miterlimit="10"/>
<path d="M19.3049 35.0352V62.6084" stroke="#300707" stroke-width="2.53333" stroke-miterlimit="10"/>
<path d="M12.3856 42.5293L0.000732422 48.708L13.5966 56.4747L11.4052 49.7474L12.3856 42.5293Z" fill="#300707"/>
<path d="M63.3366 45.0421C63.3366 49.5322 57.1591 47.3272 59.0113 45.0421C60.484 43.2252 63.4375 40.5664 63.3366 45.0421Z" fill="#300707"/>
<path d="M70.1726 45.0418C71.7256 47.1887 66.7124 48.5935 66.7556 45.0418C66.7989 41.4902 68.4004 42.5916 70.1726 45.0418Z" fill="#300707"/>
<path d="M56.1017 41.0919C59.8203 41.0919 61.5222 39.2112 61.8957 37.6833" stroke="#300707" stroke-width="0.95" stroke-linecap="round" stroke-linejoin="round"/>
<path d="M70.2255 41.5311C67.9424 41.5311 66.8975 40.3764 66.6682 39.4383" stroke="#300707" stroke-width="0.95" stroke-linecap="round" stroke-linejoin="round"/>
</g>
<defs>
<clipPath id="clip0_2348_14575">
<rect width="78.5333" height="76" fill="white"/>
</clipPath>
</defs>
</svg>
