<svg width="79" height="76" viewBox="0 0 79 76" fill="none" xmlns="http://www.w3.org/2000/svg">
<path d="M47.4194 23.2411C44.9972 -10.2654 8.30408 -0.607555 25.1872 17.611C29.8442 23.3421 47.1454 23.6597 47.4194 23.2411Z" fill="#EBEBEB"/>
<path d="M51.1387 22.937C51.1387 22.937 53.0851 6.855 63.8551 9.65563C67.5605 10.6084 73.1834 22.937 51.1387 22.937Z" fill="#EBEBEB"/>
<path d="M78.5325 55.3421C78.6335 89.9457 2.19069 76.5056 14.3016 48.4993C17.8339 34.8571 76.9466 19.4825 78.5325 55.3421Z" fill="#FDCB07"/>
<path d="M14.3021 48.501L1.91724 54.6797L15.5132 62.4319L13.3217 55.7191L14.3021 48.501Z" fill="#FDCB07"/>
<path d="M76.615 49.3666C76.716 84.0135 0.273206 70.5012 12.3841 42.5238C15.8588 28.8671 74.9714 13.507 76.615 49.3666Z" stroke="#300707" stroke-width="2.53333" stroke-miterlimit="10"/>
<path d="M37.0969 68.5824V28.5508" stroke="#300707" stroke-width="2.53333" stroke-miterlimit="10"/>
<path d="M28.0422 30.2969V66.2431" stroke="#300707" stroke-width="2.53333" stroke-miterlimit="10"/>
<path d="M19.3042 35.0312V62.6044" stroke="#300707" stroke-width="2.53333" stroke-miterlimit="10"/>
<path d="M12.3848 42.5244L0 48.7031L13.5959 56.4698L11.4044 49.7425L12.3848 42.5244Z" fill="#300707"/>
<path d="M63.3358 45.037C63.3358 49.5271 58.9096 49.5271 59.0105 45.037C59.1114 40.5469 63.4367 40.5613 63.3358 45.037Z" fill="#300707"/>
<path d="M70.1723 45.0372C70.1723 48.5889 66.712 48.5889 66.7553 45.0372C66.7985 41.4856 70.2011 41.5 70.1723 45.0372Z" fill="#300707"/>
</svg>
